<svg xmlns="http://www.w3.org/2000/svg" width="1200" height="800" xmlns:v="https://vecta.io/nano"><style><![CDATA[.B{font-family:arial, sans-serif}.C{font-size:18.7px}.D{text-decoration:normal}.E{stroke-linejoin:round}.F{stroke-opacity:.9}.G{stroke-miterlimit:2}.H{stroke-width:3}.I{fill:#2d70b3}]]></style><path fill="#fff" d="M0 0h1200v800H0z"/><g fill="none" stroke="#2d70b3" stroke-linecap="round" stroke-miterlimit="10" class="E F"><g stroke-width="7"><path paint-order="fill stroke markers" d="M216.02 405.438h821.668m-898.222 0h0l.452 8.312 1.172 7.374 1.758 6.818 2.344 6.546 2.93 6.31 3.514 6.058 4.396 6.14 4.98 5.684 5.566 5.206 5.86 4.49 5.86 3.676 6.152 3.128 6.152 2.47 6.152 1.88 6.152 1.33 6.446.84 6.444.292 6.446-.254 6.152-.752 6.152-1.27 6.154-1.81 6.152-2.396 5.86-2.884 5.86-3.548 5.564-4.098 5.274-4.68 4.98-5.33 4.688-6.124 3.808-6.134 3.224-6.484 2.344-6.012 1.756-5.904 1.466-7.18.586-4.786.312-6.908"/><path paint-order="fill stroke markers" d="M139.466 405.438h0l.452-8.312 1.172-7.376 1.758-6.816 2.344-6.546 2.93-6.31 3.514-6.058 4.396-6.142 4.98-5.68 5.566-5.208 5.86-4.49 5.86-3.678 6.152-3.126 6.152-2.47 6.152-1.88 6.152-1.33 6.446-.84 6.444-.292 6.446.252 6.152.754 6.152 1.27 6.154 1.81 6.152 2.396 5.86 2.884 5.86 3.548 5.564 4.098 5.274 4.68 4.98 5.33 4.688 6.124 3.808 6.134 3.224 6.484 2.344 6.012 1.756 5.904 1.466 7.18.586 4.786.312 6.908m736.554-13.694h0l8.56 13.694-8.56 13.694"/></g><path paint-order="fill stroke markers" d="M626.654 405.238v.4h.4v-.4m-411.234 0v.4h.4v-.4m752.794 0v.4h.4v-.4" stroke-width="21"/></g><text fill="none" stroke="#fff" y="16.736" transform="matrix(2 0 0 2 614.4 426.433)" class="B C D E G H">A</text><text y="16.736" transform="matrix(2 0 0 2 614.4 426.433)" class="B C D I">A</text><text fill="none" stroke="#fff" y="16.736" transform="matrix(2 0 0 2 201.5 426.433)" class="B C D E G H">O</text><text y="16.736" transform="matrix(2 0 0 2 201.5 426.433)" class="B C D I">O</text><text fill="none" stroke="#fff" y="16.736" transform="matrix(2 0 0 2 983.2 420.433)" class="B C D E G H">B</text><text y="16.736" transform="matrix(2 0 0 2 983.2 420.433)" class="B C D I">B</text></svg>