<svg xmlns="http://www.w3.org/2000/svg" width="1200" height="800" xmlns:v="https://vecta.io/nano"><style><![CDATA[.B{font-family:arial, sans-serif}.C{font-size:18.7px}.D{text-decoration:normal}.E{stroke-linejoin:round}.F{stroke-miterlimit:2}.G{stroke-width:3}.H{fill:#2d70b3}.I{stroke-opacity:.9}]]></style><path fill="#fff" d="M0 0h1200v800H0z"/><g fill="none" stroke="#2d70b3" stroke-linecap="round" stroke-miterlimit="10" class="E I"><path paint-order="fill stroke markers" d="M167.466 407.8h927.586m-9.662-15.46h0l9.662 15.46-9.662 15.46" stroke-width="7"/><path paint-order="fill stroke markers" d="M631.06 407.6v.4h.4v-.4m-464.194 0v.4h.4v-.4m890.47.194v.4h.4v-.4" stroke-width="21"/></g><text fill="none" stroke="#fff" y="16.736" transform="matrix(2 0 0 2 618.8 428.8)" class="B C D E F G">A</text><text y="16.736" transform="matrix(2 0 0 2 618.8 428.8)" class="B C D H">A</text><text fill="none" stroke="#fff" y="16.736" transform="matrix(2 0 0 2 152.9 428.8)" class="B C D E F G">O</text><text y="16.736" transform="matrix(2 0 0 2 152.9 428.8)" class="B C D H">O</text><text fill="none" stroke="#fff" y="16.736" transform="matrix(2 0 0 2 1072.333 423)" class="B C D E F G">B</text><text y="16.736" transform="matrix(2 0 0 2 1072.333 423)" class="B C D H">B</text></svg>