<svg xmlns="http://www.w3.org/2000/svg" width="120" height="77" viewBox="0 0 126 81"><g fill-rule="evenodd" clip-rule="evenodd"><path fill="#ff82b4" d="M0 0h120v77H0z"/><path fill="#0a0082" d="M0 0h120v68.75H0z"/></g><path d="M34.341 38.708V8.517h-6.154v20.402h-.085c-.089-.373-.371-.975-.845-1.807-.475-.832-1.12-1.841-1.937-3.026L14.623 8.517h-6.11v30.191h6.196V19.082h.086c.124.36.399.954.823 1.78.424.826 1.02 1.772 1.786 2.838l10.868 15.008h6.069z" fill-rule="evenodd" clip-rule="evenodd" fill="#fff"/><g fill="#fff"><path d="M62.598 62.938c-11.766 0-15.972-8.169-15.972-19.567 0-14.935 7.011-25.664 20.787-25.664 2.438 0 4.633.305 6.462.731l-1.341 7.315c-1.158-.488-3.414-1.037-5.913-1.037-6.035 0-10.424 4.816-11.034 13.472 1.463-1.28 4.268-2.926 8.9-2.926 7.132 0 12.862 4.694 12.862 12.741.001 8.597-5.73 14.935-14.751 14.935zm-.854-20.909c-2.743 0-4.938 1.037-5.791 2.378-.487.731-.487 2.438-.487 3.718 0 4.085 2.377 8.047 6.766 8.047 4.268 0 6.462-3.475 6.462-7.193-.001-4.024-2.682-6.95-6.95-6.95zM80.412 61.902v-5.669c1.097-4.999 6.034-9.571 11.765-14.569 2.865-2.5 5.974-5.608 5.974-9.753 0-3.719-2.438-6.828-7.132-6.828-3.779 0-6.4 2.743-7.438 3.901L79.07 23.01c4.146-3.597 7.986-5.304 13.777-5.304 7.559 0 14.69 4.389 14.69 13.167 0 7.376-4.693 10.85-9.875 15.544-2.194 2.012-6.522 5.791-7.071 8.29h17.739V61.9H80.412z"/></g></svg>