<svg xmlns="http://www.w3.org/2000/svg" width="120" height="77" viewBox="0 0 126 81"><g fill-rule="evenodd" clip-rule="evenodd"><path fill="#82dc73" d="M0 0h120v77H0z"/><path fill="#0a0082" d="M0 0h120v68.75H0z"/></g><path d="M34.341 38.708V8.517h-6.154v20.402h-.085c-.089-.373-.371-.975-.845-1.807-.475-.832-1.12-1.841-1.937-3.026L14.623 8.517h-6.11v30.191h6.196V19.082h.086c.124.36.399.954.823 1.78.424.826 1.02 1.772 1.786 2.838l10.868 15.008h6.069z" fill-rule="evenodd" clip-rule="evenodd" fill="#fff"/><g fill="#fff"><path d="M62.043 62.938c-4.998 0-8.839-1.097-12.131-3.108l3.475-6.705c2.378 1.646 4.816 2.743 8.169 2.743s7.559-2.012 7.559-7.071c0-3.108-2.072-7.376-9.997-7.498-2.438 0-5.304-.062-6.706-.062l1.707-22.372h22.616v7.193H61.251l-.61 8.168c.244 0 .793.061 1.22.061 11.765.548 16.52 7.193 16.52 13.655-.001 8.23-6.524 14.996-16.338 14.996zM93.378 62.938c-6.156 0-9.57-1.523-12.436-3.23l3.353-6.645c1.829 1.28 4.816 2.805 8.474 2.805 4.999 0 8.107-2.926 8.107-6.584 0-4.938-3.779-6.645-8.169-6.645h-4.449v-7.132h4.511c4.206 0 6.827-2.195 6.827-5.486 0-2.743-2.072-5.243-6.583-5.243-3.963 0-6.584 1.89-7.986 3.109l-3.108-6.34c3.657-2.438 7.62-3.84 13.045-3.84 8.778 0 13.776 5.243 13.776 10.973 0 4.45-2.377 7.986-6.949 9.692v.122c4.755.915 8.352 4.572 8.352 10.607-.001 7.558-6.768 13.837-16.765 13.837z"/></g></svg>