<svg xmlns="http://www.w3.org/2000/svg" width="120" height="77" viewBox="0 0 126 81"><g fill-rule="evenodd" clip-rule="evenodd"><path fill="#ffbe00" d="M0 0h120v77H0z"/><path fill="#0a0082" d="M0 0h120v68.75H0z"/></g><path d="M34.341 38.708V8.517h-6.154v20.402h-.085c-.089-.373-.371-.975-.845-1.807-.475-.832-1.12-1.841-1.937-3.026L14.623 8.517h-6.11v30.191h6.196V19.082h.086c.124.36.399.954.823 1.78.424.826 1.02 1.772 1.786 2.838l10.868 15.008h6.069z" fill-rule="evenodd" clip-rule="evenodd" fill="#fff"/><g fill="#fff"><path d="M59.995 62.938c-4.999 0-8.839-1.097-12.131-3.108l3.475-6.706c2.378 1.646 4.816 2.743 8.169 2.743s7.559-2.012 7.559-7.07c0-3.109-2.072-7.377-9.997-7.498-2.438 0-5.304-.062-6.706-.062l1.707-22.372h22.616v7.193H59.203l-.61 8.168c.244 0 .793.061 1.22.061 11.765.548 16.52 7.192 16.52 13.655-.001 8.23-6.523 14.996-16.338 14.996zM92.056 61.902V28.07c-2.621 2.072-6.767 4.084-9.632 5.364l-2.926-6.583c4.511-1.89 9.937-4.755 14.203-7.986h7.498v43.037h-9.143z"/></g></svg>