<svg xmlns="http://www.w3.org/2000/svg" width="120" height="77" viewBox="0 0 126 81"><g fill-rule="evenodd" clip-rule="evenodd"><path fill="#dc9600" d="M0 0h120v77H0z"/><path fill="#0a0082" d="M0 0h120v68.75H0z"/></g><path d="M34.341 38.708V8.517h-6.154v20.402h-.085c-.089-.373-.371-.975-.845-1.807-.475-.832-1.12-1.841-1.937-3.026L14.623 8.517h-6.11v30.191h6.196V19.082h.086c.124.36.399.954.823 1.78.424.826 1.02 1.772 1.786 2.838l10.868 15.008h6.069z" fill-rule="evenodd" clip-rule="evenodd" fill="#fff"/><g fill="#fff"><path d="M64.079 62.938c-11.766 0-15.972-8.169-15.972-19.567 0-14.935 7.011-25.664 20.787-25.664 2.438 0 4.633.305 6.462.731l-1.341 7.315c-1.158-.488-3.414-1.037-5.913-1.037-6.035 0-10.424 4.816-11.034 13.472 1.463-1.28 4.268-2.926 8.9-2.926 7.132 0 12.862 4.694 12.862 12.741.001 8.597-5.729 14.935-14.751 14.935zm-.853-20.909c-2.743 0-4.938 1.037-5.791 2.378-.487.731-.487 2.438-.487 3.718 0 4.085 2.377 8.047 6.766 8.047 4.268 0 6.462-3.475 6.462-7.193-.001-4.024-2.684-6.95-6.95-6.95zM92.055 61.902V28.07c-2.621 2.072-6.767 4.084-9.632 5.364l-2.926-6.583c4.511-1.89 9.937-4.755 14.203-7.986h7.498v43.037h-9.143z"/></g></svg>