<svg xmlns="http://www.w3.org/2000/svg" width="120" height="77" viewBox="0 0 126 81"><g fill-rule="evenodd" clip-rule="evenodd"><path fill="#82dc73" d="M0 0h120v77H0z"/><path fill="#0a0082" d="M0 0h120v68.75H0z"/></g><path d="M34.341 38.708V8.517h-6.154v20.402h-.085c-.089-.373-.371-.975-.845-1.807-.475-.832-1.12-1.841-1.937-3.026L14.623 8.517h-6.11v30.191h6.196V19.082h.086c.124.36.399.954.823 1.78.424.826 1.02 1.772 1.786 2.838l10.868 15.008h6.069z" fill-rule="evenodd" clip-rule="evenodd" fill="#fff"/><g fill="#fff"><path d="M72.419 52.941v8.961h-8.534v-8.961H44.5v-7.986l16.702-26.09h11.217v27.371h5.06v6.706h-5.06zm-8.534-26.517h-.122c-.183.731-1.402 3.353-3.109 6.035l-8.777 13.777h12.009V26.424zM107.643 52.941v8.961h-8.534v-8.961H79.724v-7.986l16.702-26.09h11.217v27.371h5.06v6.706h-5.06zm-8.535-26.517h-.122c-.183.731-1.402 3.353-3.109 6.035L87.1 46.235h12.009V26.424z"/></g></svg>